<svg id="Layer_2" data-name="Layer 2" xmlns="http://www.w3.org/2000/svg" viewBox="0 0 183 41"><defs><style>.cls-1{fill:#1a4a8f;}.cls-2{fill:#1c57cf;}</style></defs><title>nysse-logo-sin</title><path class="cls-1" d="M182.49,36.54a4,4,0,0,1-4.14,3.59H155.14A4.17,4.17,0,0,1,151,35.92V5.08a4.17,4.17,0,0,1,4-4.2h22.86A4.18,4.18,0,0,1,182,5.08a4,4,0,0,1-4.15,4H159.05v7.2h13.83a4.18,4.18,0,0,1,0,8.36H159.05V32h19.16A4.25,4.25,0,0,1,182.49,36.54ZM72.83,1.29c-5.11,3.67-8,8.28-10.15,11.64-.5.79-1.11,1.75-1.63,2.47-.51-.72-1.12-1.68-1.62-2.47-2.13-3.36-5-8-10.15-11.64a4.1,4.1,0,0,0-5.77,1,4.23,4.23,0,0,0,1,5.85c3.79,2.73,6,6.24,8,9.33a21.34,21.34,0,0,0,4.45,5.62V36.3a4.14,4.14,0,1,0,8.27,0V23.09a21.34,21.34,0,0,0,4.45-5.62c2-3.09,4.18-6.6,8-9.33a4.23,4.23,0,0,0,1-5.85A4.1,4.1,0,0,0,72.83,1.29ZM39.69,36V4.7a4.14,4.14,0,1,0-8.28,0V23.43a57.75,57.75,0,0,0-9.24-6.67C14.9,12.49,10,7.62,8.57,3.39A4.12,4.12,0,0,0,3.35.71a4.21,4.21,0,0,0-2.85,4V36.08a4.18,4.18,0,0,0,4.14,4.21,4.18,4.18,0,0,0,4.14-4.21V17.4A56.63,56.63,0,0,0,18,24c7.25,4.25,12.21,9.13,13.61,13.38a4.14,4.14,0,0,0,3.92,2.88,4,4,0,0,0,1.31-.22,4.2,4.2,0,0,0,2.83-4V36ZM98.84,16.73l-1-.22-.07,0h0c-7.4-1.7-8-2.95-8-4.76v-.11c0-2.08,2.38-3.2,5.78-3.2a16.53,16.53,0,0,1,9,2.37,4.58,4.58,0,0,0,2.26.58A4,4,0,0,0,111,7.49a3.78,3.78,0,0,0-2-3.35A24.83,24.83,0,0,0,95.7.58C87,.58,81,5.36,81,12.21v.1c0,7.36,5.2,10,14.2,11.93l.66.15.11,0,.34.07c6.85,1.56,7.4,2.9,7.4,4.59v.11c0,2.28-2.56,3.81-6.36,3.81a17.81,17.81,0,0,1-10.91-3.67,4.42,4.42,0,0,0-2.57-.73,4,4,0,0,0-4.21,3.88,3.86,3.86,0,0,0,1.78,3.21A27.85,27.85,0,0,0,97.16,40.5c9.33,0,15.36-4.69,15.36-11.95v-.1C112.52,20.82,106,18.31,98.84,16.73Zm35.42,0-1.08-.24c-7.4-1.7-8-2.95-8-4.76v-.11c0-2.08,2.37-3.2,5.77-3.2A16.51,16.51,0,0,1,140,10.79a4.61,4.61,0,0,0,2.26.58,4,4,0,0,0,4.22-3.88,3.78,3.78,0,0,0-2-3.35A24.86,24.86,0,0,0,131.12.58c-8.67,0-14.73,4.78-14.73,11.63v.1c0,7.36,5.21,10,14.21,11.93l1.1.25c6.85,1.56,7.4,2.9,7.4,4.59v.11c0,2.28-2.55,3.81-6.35,3.81a17.85,17.85,0,0,1-10.92-3.67,4.36,4.36,0,0,0-2.56-.73,4,4,0,0,0-4.21,3.88,3.85,3.85,0,0,0,1.77,3.21,27.9,27.9,0,0,0,15.74,4.81c9.33,0,15.37-4.69,15.37-11.95v-.1C147.94,20.82,141.36,18.31,134.26,16.73Z"/><path class="cls-2" d="M178.21,32H159.05V9h18.84a4,4,0,0,0,4.15-4A4.18,4.18,0,0,0,177.89.87H155a4.17,4.17,0,0,0-4,4.2V35.92a4.17,4.17,0,0,0,4.13,4.21h23.21a4,4,0,0,0,4.14-3.59A4.25,4.25,0,0,0,178.21,32Z"/><path class="cls-2" d="M78.6,2.29a4.1,4.1,0,0,0-5.77-1c-5.11,3.67-8,8.28-10.15,11.64-.5.79-1.11,1.75-1.63,2.47-.51-.72-1.12-1.68-1.62-2.47-2.13-3.36-5-8-10.15-11.64a4.1,4.1,0,0,0-5.77,1,4.23,4.23,0,0,0,1,5.85c3.79,2.73,6,6.24,8,9.33,2.2,3.48,4.29,6.78,8.19,7.11.12,0,.67,0,.79,0,3.9-.33,6-3.63,8.19-7.11,2-3.09,4.18-6.6,8-9.33A4.23,4.23,0,0,0,78.6,2.29Z"/><path class="cls-2" d="M35.55,40.29a4.14,4.14,0,0,1-3.92-2.88C30.23,33.16,25.27,28.28,18,24,6.31,17.16,2.14,10.44.71,6A4.21,4.21,0,0,1,3.35.71,4.12,4.12,0,0,1,8.57,3.39c1.38,4.23,6.33,9.1,13.6,13.37,5.27,3.09,14.53,9.54,17.31,18a4.23,4.23,0,0,1-2.62,5.32A4,4,0,0,1,35.55,40.29Z"/><path class="cls-2" d="M98.84,16.73l-1-.22a4,4,0,0,0-4.84,3,4.08,4.08,0,0,0,3,4.92l.34.07c6.85,1.56,7.4,2.9,7.4,4.59v.11c0,2.28-2.56,3.81-6.36,3.81a17.81,17.81,0,0,1-10.91-3.67,4.42,4.42,0,0,0-2.57-.73,4,4,0,0,0-4.21,3.88,3.86,3.86,0,0,0,1.78,3.21A27.85,27.85,0,0,0,97.16,40.5c9.33,0,15.36-4.69,15.36-11.95v-.1C112.52,20.82,106,18.31,98.84,16.73Z"/><path class="cls-2" d="M134.26,16.73l-1-.22a4,4,0,0,0-4.85,3,4.08,4.08,0,0,0,3,4.92l.34.07c6.85,1.56,7.4,2.9,7.4,4.59v.11c0,2.28-2.55,3.81-6.35,3.81a17.85,17.85,0,0,1-10.92-3.67,4.36,4.36,0,0,0-2.56-.73,4,4,0,0,0-4.21,3.88,3.85,3.85,0,0,0,1.77,3.21,27.9,27.9,0,0,0,15.74,4.81c9.33,0,15.37-4.69,15.37-11.95v-.1C147.94,20.82,141.36,18.31,134.26,16.73Z"/></svg>